<?xml version="1.0" encoding="UTF-8" standalone="no"?>
<svg width="29px" height="22px" viewBox="0 0 29 22" version="1.1" xmlns="http://www.w3.org/2000/svg" xmlns:xlink="http://www.w3.org/1999/xlink" xmlns:sketch="http://www.bohemiancoding.com/sketch/ns">
    <!-- Generator: Sketch 3.3.3 (12072) - http://www.bohemiancoding.com/sketch -->
    <title>mail59</title>
    <desc>Created with Sketch.</desc>
    <defs></defs>
    <g id="Website" stroke="none" stroke-width="1" fill="none" fill-rule="evenodd" sketch:type="MSPage">
        <g id="Artboard-4" sketch:type="MSArtboardGroup" transform="translate(-234.000000, -708.000000)" fill="#FFFFFF">
            <g id="Group" sketch:type="MSLayerGroup" transform="translate(180.000000, 180.000000)">
                <g id="mail59-+-post-linkedin-copy" transform="translate(54.000000, 528.066975)" sketch:type="MSShapeGroup">
                    <g id="mail59">
                        <path d="M28.6191305,17.9509093 C28.6191305,18.57831 28.4426538,19.1599399 28.159949,19.6716752 L19.1237165,9.56142382 L28.0619785,1.74124085 C28.4096824,2.29302546 28.6191305,2.94118807 28.6191305,3.64160948 L28.6191305,17.9509093 L28.6191305,17.9509093 Z M14.3095947,11.3971472 L26.7468967,0.514810324 C26.236518,0.235408535 25.6617891,0.0640633387 25.0418203,0.0640633387 L3.57736919,0.0640633387 C2.95663362,0.0640633387 2.38172772,0.235408535 1.87341347,0.514810324 L14.3095947,11.3971472 L14.3095947,11.3971472 Z M17.7770199,10.7387806 L14.8981257,13.259354 C14.7297296,13.4060443 14.5200456,13.479301 14.3095947,13.479301 C14.0990259,13.479301 13.8893419,13.4060443 13.7209458,13.259354 L10.8414028,10.7386626 L1.69086153,20.9781454 C2.23934311,21.3222514 2.88213827,21.5283965 3.57731021,21.5283965 L25.0418203,21.5283965 C25.7368743,21.5283965 26.3799643,21.3222514 26.928269,20.9781454 L17.7770199,10.7387806 L17.7770199,10.7387806 Z M0.557270023,1.74118186 C0.20962507,2.29296648 0,2.94112909 0,3.64160948 L0,17.9509683 C0,18.5783689 0.175650945,19.1599989 0.459417465,19.6717341 L9.49458828,9.55971331 L0.557270023,1.74118186 L0.557270023,1.74118186 Z" id="Shape"></path>
                    </g>
                </g>
            </g>
        </g>
    </g>
</svg>