<?xml version="1.0" encoding="UTF-8" standalone="no"?>
<svg width="22px" height="23px" viewBox="0 0 22 23" version="1.1" xmlns="http://www.w3.org/2000/svg" xmlns:xlink="http://www.w3.org/1999/xlink" xmlns:sketch="http://www.bohemiancoding.com/sketch/ns">
    <!-- Generator: Sketch 3.3.3 (12072) - http://www.bohemiancoding.com/sketch -->
    <title>post-twitter</title>
    <desc>Created with Sketch.</desc>
    <defs></defs>
    <g id="Website" stroke="none" stroke-width="1" fill="none" fill-rule="evenodd" sketch:type="MSPage">
        <g id="Artboard-4" sketch:type="MSArtboardGroup" transform="translate(-323.000000, -708.000000)" fill="#FFFFFF">
            <g id="Group" sketch:type="MSLayerGroup" transform="translate(180.000000, 180.000000)">
                <g id="mail59-+-post-linkedin-copy" transform="translate(54.000000, 528.066975)" sketch:type="MSShapeGroup">
                    <g id="post-twitter" transform="translate(89.000000, 0.000000)">
                        <path d="M19.8,0 L2.2,0 C0.99,0 0,0.99 0,2.2 L0,19.8 C0,21.01 0.99,22 2.2,22 L19.8,22 C21.01,22 22,21.01 22,19.8 L22,2.2 C22,0.99 21.01,0 19.8,0 L19.8,0 Z M17.27,8.03 C17.16,13.09 13.97,16.61 9.13,16.83 C7.15,16.94 5.72,16.28 4.4,15.51 C5.83,15.73 7.7,15.18 8.69,14.3 C7.26,14.19 6.38,13.42 5.94,12.21 C6.38,12.32 6.82,12.21 7.15,12.21 C5.83,11.77 4.95,11 4.84,9.24 C5.17,9.46 5.61,9.57 6.05,9.57 C5.06,9.02 4.4,6.93 5.17,5.61 C6.6,7.15 8.36,8.47 11.22,8.69 C10.45,5.61 14.63,3.96 16.28,6.05 C17.05,5.94 17.6,5.61 18.15,5.39 C17.93,6.16 17.49,6.6 16.94,7.04 C17.49,6.93 18.04,6.82 18.48,6.6 C18.37,7.15 17.82,7.59 17.27,8.03 L17.27,8.03 Z" id="Shape"></path>
                    </g>
                </g>
            </g>
        </g>
    </g>
</svg>